# xmcd
#
# Track frame offsets:
#        150
#        20604
#        38471
#        54846
#        71897
#        93849
#        112411
#        128558
#        145949
#        160316
#        174757
#        197949
#
# Disc length: 2904 seconds
#
# Revision: 0
# Processed by: cddbd v1.5.1PL0 Copyright (c) Steve Scherf et al.
# Submitted via: ExactAudioCopy v0.95a5
#
DISCID=a00b560c
DTITLE=Full Flava - Chinese Whispers
DYEAR=2000
DGENRE=R&B
TTITLE0=Chinese Whispers
TTITLE1=[I Need You] Tonight
TTITLE2=Unwrap
TTITLE3=Fall
TTITLE4=Reach Out
TTITLE5=When You Turn Out The Light
TTITLE6=I Will Believe
TTITLE7=Make You Mine
TTITLE8=Here We Go Again
TTITLE9=Bethcha Wouldn't Hurt You
TTITLE10=Chinese Whispers (Bishop Brad Remix)
TTITLE11=Unwrap (Dope Remix)
EXTD=
EXTT0=
EXTT1=
EXTT2=
EXTT3=
EXTT4=
EXTT5=
EXTT6=
EXTT7=
EXTT8=
EXTT9=
EXTT10=
EXTT11=
PLAYORDER=
